<?xml version="1.0" standalone="no"?>
<!DOCTYPE svg PUBLIC "-//W3C//DTD SVG 20010904//EN"
 "http://www.w3.org/TR/2001/REC-SVG-20010904/DTD/svg10.dtd">
<svg version="1.0" xmlns="http://www.w3.org/2000/svg"
 width="1200.000000pt" height="800.000000pt" viewBox="0 0 1200.000000 800.000000"
 preserveAspectRatio="xMidYMid meet">

<g transform="translate(0.000000,800.000000) scale(0.100000,-0.100000)"
fill="#000000" stroke="none">
<path d="M0 4000 l0 -4000 6000 0 6000 0 0 4000 0 4000 -6000 0 -6000 0 0
-4000z m3466 2718 c4 -7 3 -8 -5 -4 -6 4 -30 -2 -52 -13 -44 -23 -49 -25 -49
-13 0 11 60 41 82 41 9 1 20 -4 24 -11z m5084 -2 c14 -7 44 -23 68 -36 24 -12
41 -24 39 -27 -7 -6 -97 40 -97 49 0 4 -10 8 -22 9 -13 0 -32 4 -43 9 -18 8
-18 9 5 9 14 1 36 -5 50 -13z m-5210 -44 c0 -4 -26 -21 -57 -37 -31 -17 -61
-34 -67 -40 -6 -5 -29 -19 -51 -30 -22 -11 -67 -36 -100 -55 -33 -20 -67 -39
-75 -43 -16 -7 -36 -20 -82 -50 -16 -10 -28 -15 -28 -12 0 4 -15 -5 -32 -19
-48 -38 -48 -38 -104 -68 -59 -32 -91 -37 -54 -9 13 11 28 17 32 15 4 -3 18 4
30 15 12 12 25 21 30 21 5 0 35 18 67 40 32 22 63 40 68 40 5 0 18 8 29 18 10
10 35 24 54 32 19 8 37 16 40 19 3 3 25 17 50 30 25 13 52 29 60 36 8 7 35 23
60 36 25 13 47 26 50 29 9 9 65 39 73 40 4 0 7 -4 7 -8z m5350 -42 c0 -5 -7
-7 -15 -4 -8 4 -12 10 -9 15 6 11 24 2 24 -11z m80 -40 c28 -16 53 -30 56 -30
3 0 20 -11 38 -25 18 -14 38 -25 44 -25 6 0 17 -6 24 -13 7 -7 36 -24 63 -39
28 -14 64 -34 82 -44 92 -55 126 -74 134 -74 5 0 9 -4 9 -8 0 -4 16 -14 35
-21 19 -7 35 -17 35 -22 0 -15 -23 -10 -50 11 -14 11 -31 20 -37 20 -7 0 -13
3 -13 8 0 4 -17 15 -37 25 -21 10 -87 47 -148 84 -60 36 -130 77 -155 90 -25
14 -52 30 -60 37 -8 7 -32 20 -52 30 -21 9 -38 19 -38 21 0 11 22 3 70 -25z
m-3413 -129 c38 -25 64 -50 73 -70 9 -23 13 -108 14 -324 l1 -292 -37 -71
c-47 -91 -104 -148 -203 -203 -44 -25 -81 -48 -83 -53 -2 -4 -8 -8 -13 -8 -5
0 -44 -21 -87 -46 -42 -25 -86 -50 -97 -57 -42 -24 -375 -216 -470 -272 -55
-32 -179 -104 -275 -160 -162 -94 -367 -213 -500 -290 -30 -18 -88 -51 -129
-75 -70 -40 -145 -110 -617 -579 -2 -3 -18 5 -34 17 -16 12 -33 22 -37 22 -4
0 -51 27 -103 61 -61 39 -84 58 -65 53 17 -4 27 -4 24 0 -7 7 64 82 93 97 10
5 18 17 18 27 1 13 6 10 21 -10 16 -21 29 -28 55 -28 19 0 34 5 34 11 0 6 23
58 50 116 28 58 50 109 50 113 0 5 4 10 8 12 5 2 31 57 58 123 l49 120 5 246
5 245 34 68 c22 42 54 85 86 114 32 29 178 119 371 230 175 100 366 210 424
244 58 33 161 93 230 133 69 39 186 107 260 150 720 418 637 373 691 374 26 1
53 -10 96 -38z m1394 25 c19 -8 75 -39 124 -69 50 -30 111 -65 135 -79 93 -52
555 -321 565 -328 6 -4 35 -21 65 -37 30 -17 170 -97 310 -179 140 -81 284
-164 320 -184 378 -213 427 -249 481 -357 l34 -68 5 -255 5 -255 34 -70 c18
-38 37 -80 43 -92 6 -11 7 -27 3 -35 -5 -7 -5 -10 0 -6 7 7 70 -112 115 -220
15 -35 27 -51 36 -48 8 3 14 1 14 -3 0 -16 40 1 55 22 13 18 15 19 21 4 3 -9
9 -15 13 -13 4 3 16 -9 26 -25 11 -16 25 -29 30 -29 6 0 15 -10 20 -22 7 -16
18 -22 33 -21 12 2 22 -1 22 -5 0 -8 -142 -98 -206 -129 l-40 -21 -275 269
-274 269 -330 192 c-181 106 -397 231 -480 279 -82 47 -175 101 -205 119 -30
18 -84 50 -120 70 -36 20 -129 73 -206 118 -78 45 -146 82 -152 82 -6 0 -12 4
-14 8 -3 8 -30 25 -213 133 -109 64 -194 146 -179 171 4 6 3 8 -2 5 -6 -3 -21
22 -34 56 -25 61 -25 68 -25 352 0 331 -3 320 90 381 56 37 102 43 156 20z
m-3513 -108 c5 -7 13 -24 16 -38 4 -14 12 -35 18 -47 9 -18 4 -36 -31 -107
-22 -47 -41 -90 -41 -95 0 -15 38 -23 79 -16 58 10 71 -9 71 -101 l0 -74 -42
-26 c-233 -138 -373 -214 -385 -210 -11 5 -13 21 -9 76 6 83 19 110 91 191 66
74 69 96 19 137 -31 26 -36 34 -30 59 4 15 10 44 15 63 26 115 102 198 182
199 20 1 41 -5 47 -11z m5593 -17 c68 -43 83 -71 125 -246 4 -15 -5 -28 -35
-50 -22 -17 -41 -37 -41 -45 0 -17 52 -85 87 -113 40 -32 63 -97 63 -175 0
-40 -4 -72 -10 -72 -9 0 -301 165 -382 217 -36 22 -38 26 -39 76 -3 120 4 131
76 122 74 -10 81 4 46 83 -15 35 -33 68 -39 74 -15 15 -16 55 -2 63 6 3 10 16
10 28 0 69 66 86 141 38z m-6185 -96 c-11 -8 -24 -15 -28 -15 -5 0 -31 -16
-59 -35 -28 -19 -57 -35 -65 -35 -8 0 -14 -4 -14 -8 0 -4 -22 -19 -50 -33 -27
-13 -50 -27 -50 -31 0 -5 -5 -8 -11 -8 -6 0 -30 -13 -53 -28 -23 -16 -56 -35
-74 -43 -18 -7 -32 -17 -32 -21 0 -5 -5 -8 -10 -8 -6 0 -47 -24 -93 -53 -45
-30 -107 -68 -137 -85 -30 -18 -117 -71 -194 -117 -76 -47 -140 -85 -142 -85
-10 0 -102 -67 -123 -89 -35 -39 -72 -100 -94 -156 -17 -43 -21 -85 -27 -290
-3 -137 -8 -206 -10 -160 -2 44 -5 98 -6 120 -2 22 -3 63 -3 90 -1 38 -4 46
-12 35 -7 -11 -9 19 -7 103 2 64 0 117 -4 117 -5 0 -8 9 -8 21 0 11 -4 17 -10
14 -17 -10 -11 17 14 70 27 58 78 109 157 156 30 19 64 40 75 47 10 6 30 17
44 22 14 6 33 14 42 20 21 12 36 -7 18 -23 -10 -9 -11 -9 -6 1 14 23 -12 12
-50 -23 l-39 -36 65 32 c36 18 67 36 68 41 2 4 10 8 18 8 8 0 14 5 14 11 0 5
4 8 9 5 5 -3 20 3 34 14 14 11 30 20 37 20 6 0 8 5 4 12 -5 7 -3 8 6 3 7 -4
15 -4 19 1 3 5 31 21 61 36 97 48 271 143 410 223 74 43 164 94 200 113 36 19
72 41 80 48 8 8 23 14 35 14 20 -1 20 -1 1 -15z m6700 -3 c22 -9 66 -35 99
-58 33 -22 98 -60 145 -84 47 -24 87 -46 90 -50 3 -4 43 -27 90 -52 82 -43
119 -62 150 -79 8 -5 48 -25 88 -46 39 -20 72 -41 72 -45 0 -4 6 -8 13 -8 7 0
43 -18 80 -39 37 -22 67 -37 67 -33 0 4 4 2 8 -4 11 -17 132 -85 132 -74 0 5
-9 14 -21 21 -26 14 -12 31 19 22 14 -3 21 -11 18 -19 -3 -8 0 -11 9 -8 12 5
94 -43 135 -78 23 -19 65 -88 78 -127 13 -37 15 -58 6 -48 -3 3 -11 1 -18 -5
-8 -7 -10 -46 -8 -120 3 -81 1 -112 -9 -125 -10 -11 -16 -64 -19 -187 l-6
-171 -2 222 c-2 232 -10 295 -47 378 -44 99 -92 149 -205 216 -58 34 -117 70
-132 80 -15 11 -30 19 -32 19 -10 0 -300 183 -329 207 -16 12 -34 23 -40 23
-6 0 -38 17 -71 38 -34 21 -99 60 -146 87 -47 26 -86 52 -88 56 -2 5 -8 9 -13
9 -15 0 -159 84 -159 93 0 10 3 9 46 -11z m-6568 -179 c-2 -21 -17 -34 -75
-67 -40 -23 -103 -59 -140 -80 -37 -22 -84 -48 -103 -59 -37 -21 -195 -111
-220 -127 -82 -49 -615 -351 -624 -353 -6 -1 -11 9 -11 22 0 22 42 49 365 234
201 115 462 264 580 332 118 68 219 124 223 124 5 1 7 -11 5 -26z m6639 -109
c131 -75 258 -148 283 -162 39 -22 384 -220 480 -275 19 -11 62 -35 94 -53 60
-32 81 -59 66 -83 -5 -10 -17 -7 -46 11 -22 14 -109 64 -194 112 -250 142
-293 168 -322 187 -15 11 -29 19 -32 19 -4 0 -329 186 -366 209 -8 6 -35 21
-60 34 -123 67 -145 83 -148 110 -2 15 -1 27 2 27 3 0 112 -61 243 -136z
m-7207 116 c-8 -5 -19 -10 -25 -10 -5 0 -3 5 5 10 8 5 20 10 25 10 6 0 3 -5
-5 -10z m570 -103 c-1 -21 -39 -45 -330 -207 -25 -14 -56 -33 -70 -42 -14 -9
-41 -25 -60 -35 -19 -10 -46 -26 -60 -34 -14 -9 -99 -58 -190 -109 -91 -51
-229 -131 -308 -177 -78 -46 -146 -82 -151 -79 -22 14 -3 47 42 76 26 16 49
30 51 30 3 0 123 68 261 148 33 19 94 53 135 77 41 23 183 104 315 179 132 76
260 149 285 163 25 14 49 29 54 34 14 12 26 1 26 -24z m6612 -90 c268 -155
419 -242 483 -278 28 -15 120 -68 205 -118 85 -49 179 -102 208 -117 44 -23
52 -32 52 -56 0 -15 -2 -28 -5 -28 -3 0 -92 50 -198 112 -105 61 -257 148
-337 193 -80 45 -192 110 -250 144 -58 33 -167 96 -242 138 -125 71 -138 81
-138 106 0 15 2 27 4 27 2 0 100 -55 218 -123z m-6614 1 c-3 -21 -57 -59 -169
-120 -24 -13 -87 -49 -139 -79 -238 -140 -421 -240 -429 -235 -5 4 -7 15 -4
26 5 19 26 35 107 80 21 12 116 65 210 119 94 54 191 109 216 123 25 14 77 44
115 66 81 47 98 51 93 20z m6505 -32 c51 -30 133 -76 182 -103 50 -28 135 -76
190 -108 55 -31 116 -66 135 -77 115 -66 120 -70 120 -94 0 -13 -3 -24 -6 -24
-7 0 -225 122 -374 209 -52 30 -111 65 -131 76 -218 123 -229 130 -229 153 0
12 5 22 11 22 5 0 51 -24 102 -54z m-7393 30 c0 -2 -7 -7 -16 -10 -8 -3 -12
-2 -9 4 6 10 25 14 25 6z m8280 -48 c10 -6 7 -7 -10 -2 -14 3 -32 11 -40 16
-10 6 -7 7 10 2 14 -3 32 -11 40 -16z m-7390 -43 c0 -18 -9 -29 -37 -43 -67
-34 -198 -107 -223 -125 -13 -9 -30 -17 -37 -17 -21 0 -15 38 10 55 40 29 262
154 275 154 6 1 12 -10 12 -24z m6481 -16 c181 -102 214 -124 217 -147 2 -12
-1 -22 -6 -22 -5 0 -47 21 -93 47 -46 25 -111 61 -144 79 -46 25 -61 39 -63
58 -2 14 1 26 6 26 5 0 43 -19 83 -41z m-7541 6 c-7 -8 -17 -12 -23 -8 -6 4
-3 11 8 19 23 17 32 10 15 -11z m8599 -30 c22 -7 22 -8 7 -17 -20 -11 -50 -3
-41 12 3 5 -1 10 -9 10 -9 0 -16 5 -16 11 0 6 -7 9 -14 6 -10 -4 -13 -1 -9 8
4 13 9 12 32 -4 14 -10 37 -22 50 -26z m-7539 -49 c0 -25 -23 -40 -230 -154
-25 -13 -70 -39 -100 -57 -30 -18 -76 -44 -102 -59 l-48 -26 0 28 c0 22 8 33
38 49 82 45 281 159 347 199 82 50 95 52 95 20z m6484 -22 c44 -26 104 -59
131 -74 28 -16 93 -53 144 -84 52 -31 99 -56 103 -56 4 0 8 -11 8 -25 0 -14
-5 -25 -11 -25 -9 0 -87 43 -401 222 -55 32 -68 44 -68 63 0 14 3 25 6 25 3 0
43 -21 88 -46z m2472 -9 c3 -14 10 -25 14 -25 21 0 32 -65 28 -161 -7 -133
-26 -154 -27 -30 -1 51 -6 113 -12 139 -6 26 -12 54 -13 62 -1 9 -5 21 -10 28
-4 6 -3 12 3 12 6 0 13 -11 17 -25z m-11521 -47 c-8 -29 -18 -95 -22 -146 -3
-51 -8 -91 -9 -89 -9 8 -16 88 -15 146 2 59 17 105 44 139 18 22 19 5 2 -50z
m-109 32 c47 -22 53 -38 33 -84 -7 -15 -17 -22 -23 -18 -6 3 -16 7 -22 8 -26
4 -54 40 -54 70 0 28 6 44 17 44 2 0 24 -9 49 -20z m11804 -30 c0 -35 -10 -61
-20 -55 -4 3 -21 -2 -36 -10 -35 -18 -44 -10 -51 44 -4 32 -2 41 10 41 8 0 27
7 43 15 34 18 54 5 54 -35z m-9130 -15 c0 -25 -20 -39 -252 -170 -29 -16 -73
-42 -98 -56 -25 -14 -205 -117 -400 -229 -195 -112 -367 -212 -382 -222 -32
-22 -49 -16 -45 14 3 15 35 38 108 80 57 33 133 77 169 98 162 94 263 151 332
189 23 13 107 61 186 107 79 46 145 84 147 84 3 0 29 16 59 35 30 19 59 35 63
35 4 0 28 14 52 30 53 36 61 37 61 5z m6440 0 c22 -14 41 -25 44 -25 2 0 68
-38 147 -83 79 -46 164 -95 189 -109 25 -14 178 -102 340 -195 162 -93 319
-182 348 -198 44 -24 52 -32 52 -57 0 -17 -3 -28 -8 -26 -32 13 -168 93 -170
100 -2 4 -7 8 -11 8 -5 0 -93 49 -197 109 -104 59 -238 137 -299 171 -60 34
-150 86 -200 115 -49 29 -133 77 -185 107 -80 45 -95 57 -98 81 -4 33 -2 33
48 2z m-6782 -13 c2 -14 -3 -25 -14 -29 -13 -5 -187 -105 -264 -153 -28 -17
-305 -175 -313 -179 -5 -2 -7 10 -5 25 3 25 20 39 143 110 77 45 156 90 175
100 19 10 46 26 60 35 14 9 52 31 85 49 33 18 71 41 85 51 30 22 44 20 48 -9z
m7120 10 c15 -10 92 -56 172 -102 408 -234 389 -221 376 -255 -5 -14 -9 -14
-28 -2 -13 8 -69 41 -126 73 -118 67 -119 68 -304 176 -117 68 -138 84 -138
104 0 29 13 30 48 6z m-7560 -169 c-2 -22 -19 -36 -88 -76 -47 -27 -133 -78
-192 -112 -62 -37 -110 -60 -114 -54 -20 32 9 56 193 161 103 59 192 107 196
108 5 0 7 -12 5 -27z m8054 -24 c51 -28 104 -59 118 -69 27 -19 111 -67 147
-84 16 -7 23 -20 23 -38 0 -16 -3 -28 -6 -28 -3 0 -77 42 -165 93 -88 50 -175
101 -194 111 -24 14 -35 27 -35 43 0 13 4 23 10 23 5 0 52 -23 102 -51z
m-7792 -7 c0 -25 -12 -34 -117 -95 -65 -36 -142 -81 -170 -98 l-53 -31 0 30
c0 28 7 35 76 73 43 23 118 66 167 96 50 29 92 53 94 53 2 0 3 -13 3 -28z
m7568 -49 c53 -32 113 -67 133 -78 69 -39 71 -41 67 -68 -3 -26 -5 -25 -173
72 -146 84 -170 102 -173 125 -3 24 -2 25 23 16 14 -5 69 -36 123 -67z m-9631
-15 c-3 -8 -6 -5 -6 6 -1 11 2 17 5 13 3 -3 4 -12 1 -19z m1611 -114 c-3 -17
-170 -123 -194 -124 -9 0 -11 21 -5 51 0 4 16 13 34 20 17 7 37 17 42 22 6 4
33 21 60 37 51 29 70 27 63 -6z m8465 -36 c53 -32 67 -45 67 -64 0 -13 -3 -24
-7 -24 -4 0 -48 24 -100 53 -82 46 -93 55 -93 80 l0 28 33 -17 c17 -9 62 -35
100 -56z m-8393 -5 c0 -25 -13 -35 -128 -100 -70 -40 -131 -73 -137 -73 -5 0
-10 10 -10 22 0 17 27 37 130 99 72 42 133 78 138 78 4 1 7 -11 7 -26z m8315
-43 c113 -63 144 -85 148 -107 2 -12 2 -24 0 -27 -5 -5 -66 28 -190 102 -93
54 -93 56 -84 100 1 2 20 -7 44 -21 23 -14 60 -35 82 -47z m-8808 -302 c-3 -8
-6 -5 -6 6 -1 11 2 17 5 13 3 -3 4 -12 1 -19z m3727 -48 c70 -41 80 -50 102
-90 17 -31 19 -62 22 -254 5 -270 -6 -355 -55 -448 -19 -37 -52 -84 -73 -105
-36 -37 -153 -107 -508 -307 -46 -25 -115 -66 -155 -90 -40 -23 -169 -98 -287
-166 -185 -106 -489 -282 -890 -514 -132 -76 -158 -78 -250 -21 -100 62 -100
62 -100 365 0 195 4 270 15 313 30 116 97 213 178 260 23 13 85 49 137 79 52
30 154 88 225 130 72 41 252 145 400 230 329 189 441 254 565 326 52 30 124
72 160 92 36 21 119 69 185 107 240 140 245 142 329 93z m1969 -47 c72 -42
173 -100 222 -128 50 -28 135 -78 190 -110 55 -32 172 -99 260 -150 268 -154
480 -277 695 -401 113 -65 219 -125 235 -134 103 -54 209 -127 239 -163 91
-113 106 -182 106 -502 0 -296 0 -297 -99 -358 -46 -29 -75 -40 -105 -41 -42
-1 -51 3 -306 151 -95 55 -279 162 -475 275 -71 41 -254 146 -405 233 -151 87
-308 177 -347 201 -40 24 -75 44 -77 44 -5 0 -221 127 -311 183 -76 47 -124
107 -167 208 -21 51 -23 71 -26 315 -4 291 1 330 51 377 43 40 116 76 155 77
23 0 71 -22 165 -77z m2157 -623 c0 -5 -7 -10 -16 -10 -8 0 -12 5 -9 10 3 6
10 10 16 10 5 0 9 -4 9 -10z"/>
<path d="M8820 4496 c0 -7 8 -20 17 -27 15 -12 16 -12 10 4 -4 10 -7 23 -7 28
0 5 -4 9 -10 9 -5 0 -10 -6 -10 -14z"/>
<path d="M1545 5680 c-8 -13 5 -13 25 0 13 8 13 10 -2 10 -9 0 -20 -4 -23 -10z"/>
<path d="M10396 5681 c-4 -5 3 -7 14 -4 23 6 26 13 6 13 -8 0 -17 -4 -20 -9z"/>
<path d="M10450 5650 c0 -5 5 -10 10 -10 6 0 10 5 10 10 0 6 -4 10 -10 10 -5
0 -10 -4 -10 -10z"/>
</g>
</svg>
