<?xml version="1.0" standalone="no"?>
<!DOCTYPE svg PUBLIC "-//W3C//DTD SVG 20010904//EN"
 "http://www.w3.org/TR/2001/REC-SVG-20010904/DTD/svg10.dtd">
<svg version="1.0" xmlns="http://www.w3.org/2000/svg"
 width="2560.000000pt" height="690.000000pt" viewBox="0 0 2560.000000 690.000000"
 preserveAspectRatio="xMidYMid meet">

<g transform="translate(0.000000,690.000000) scale(0.100000,-0.100000)"
fill="#000000" stroke="none">
<path d="M1644 6680 c36 -335 51 -1065 62 -3005 6 -1062 2 -1347 -26 -1729
-22 -301 27 -682 109 -845 32 -63 105 -136 124 -125 45 26 199 156 290 243
274 265 517 621 677 994 238 556 317 1154 235 1784 -41 313 -205 822 -379
1178 -180 367 -362 618 -712 985 -173 182 -215 240 -317 440 l-69 135 6 -55z"/>
<path d="M18398 4562 c-36 -40 -92 -172 -73 -172 3 0 51 -7 108 -15 225 -34
295 -62 336 -136 21 -37 25 -60 32 -203 11 -216 10 -1405 -1 -1791 -10 -350
-17 -397 -73 -439 -38 -29 -103 -52 -172 -61 -94 -12 -95 -12 -121 -69 -13
-29 -25 -71 -27 -92 l-2 -39 425 -8 c647 -12 1074 -4 1238 21 421 66 727 214
993 481 125 125 195 224 263 366 205 427 205 996 1 1407 -63 127 -128 220
-229 326 -158 165 -330 274 -548 346 -268 90 -436 103 -1127 87 -284 -6 -561
-9 -616 -6 -320 16 -391 16 -407 -3z m1413 -213 c343 -34 593 -144 800 -351
161 -162 264 -360 321 -621 20 -89 22 -132 23 -337 0 -252 -9 -328 -60 -505
-97 -341 -345 -617 -646 -721 -233 -80 -585 -70 -790 22 -113 51 -157 127
-170 293 -9 125 -10 1921 0 2063 7 117 24 141 105 156 71 13 294 14 417 1z"/>
<path d="M21792 4545 c-21 -27 -62 -125 -62 -149 0 -9 45 -19 153 -35 83 -13
170 -31 193 -41 51 -22 81 -64 94 -131 12 -64 12 -1635 0 -2009 -5 -146 -14
-283 -20 -305 -19 -64 -52 -91 -140 -115 -43 -11 -108 -23 -145 -27 -53 -5
-69 -10 -85 -30 -24 -31 -52 -116 -48 -145 4 -28 -59 -26 808 -30 655 -3 667
-3 785 20 430 81 753 281 903 562 59 108 83 202 89 345 6 150 -11 238 -68 354
-90 182 -267 318 -524 403 -52 17 -95 34 -95 37 0 3 39 26 88 51 109 55 250
190 300 287 67 128 87 275 57 429 -45 236 -209 405 -473 488 -173 54 -211 56
-959 55 -378 -1 -720 2 -759 6 -69 7 -71 7 -92 -20z m1378 -234 c262 -66 399
-215 430 -467 28 -222 -55 -424 -208 -507 -98 -53 -161 -62 -454 -61 -216 0
-269 3 -283 14 -17 14 -17 47 -10 495 7 514 10 538 58 549 12 2 103 3 202 1
143 -2 197 -7 265 -24z m-23 -1266 c134 -18 281 -64 370 -116 79 -47 182 -151
221 -226 48 -91 72 -197 72 -317 -1 -272 -111 -465 -322 -566 -116 -55 -232
-74 -403 -66 -232 11 -317 42 -376 134 -61 96 -61 100 -67 646 -4 473 -3 500
14 513 26 19 340 17 491 -2z"/>
<path d="M11260 3528 c-89 -36 -375 -110 -515 -133 -108 -18 -140 -32 -157
-71 -19 -41 15 -74 108 -106 102 -36 197 -84 226 -115 l23 -25 3 -463 c3 -507
-6 -763 -29 -809 -22 -46 -58 -65 -149 -83 -124 -23 -128 -25 -135 -76 -4 -24
-3 -63 2 -87 l8 -43 512 -1 513 -1 11 50 c6 28 9 68 7 90 l-3 40 -105 17
c-126 20 -163 36 -187 80 -17 30 -18 78 -21 612 -4 664 -7 639 77 701 78 56
173 96 276 113 224 38 414 -46 495 -221 52 -109 54 -141 55 -684 0 -493 0
-502 -21 -530 -28 -38 -61 -53 -163 -70 -47 -8 -90 -19 -96 -24 -11 -11 -14
-135 -4 -159 6 -13 71 -15 510 -14 l504 1 13 38 c7 22 12 62 10 90 l-3 50 -87
17 c-47 9 -113 27 -145 40 -94 37 -89 6 -97 605 -9 635 -18 708 -108 887 -44
87 -173 213 -261 255 -130 62 -274 76 -413 41 -113 -29 -300 -125 -426 -220
-58 -44 -112 -80 -118 -80 -9 0 -10 32 -5 130 5 95 4 138 -5 160 -7 17 -15 30
-19 29 -3 -1 -40 -15 -81 -31z"/>
<path d="M4800 3523 c-86 -33 -386 -109 -508 -128 -101 -16 -145 -37 -150 -71
-4 -32 11 -44 104 -78 118 -44 203 -88 234 -121 l25 -27 3 -475 c3 -546 -6
-759 -33 -816 -27 -56 -54 -68 -272 -113 -27 -5 -38 -53 -28 -120 l7 -47 123
7 c159 9 605 10 756 1 l117 -7 11 38 c15 52 14 109 -1 122 -7 5 -35 13 -61 16
-145 21 -208 56 -227 125 -6 22 -10 266 -10 620 0 560 1 585 19 615 26 42 158
120 268 159 79 28 100 31 198 31 90 0 120 -4 166 -22 110 -44 192 -140 236
-280 20 -65 26 -109 33 -277 10 -199 -2 -793 -16 -845 -11 -39 -41 -76 -71
-89 -16 -6 -71 -19 -123 -29 -81 -16 -97 -22 -107 -43 -14 -26 -15 -69 -4
-109 l7 -24 497 -1 c405 0 498 2 502 13 14 37 16 118 3 133 -7 9 -51 24 -98
33 -116 24 -165 47 -187 88 -17 31 -18 70 -19 563 0 292 -4 569 -8 617 l-8 87
68 44 c278 176 556 173 723 -8 46 -50 72 -98 96 -175 24 -81 37 -435 27 -795
-7 -275 -9 -303 -27 -335 -25 -43 -71 -67 -174 -88 -74 -15 -81 -19 -86 -44
-4 -15 -3 -52 0 -83 7 -53 8 -55 34 -48 36 10 823 9 893 0 56 -8 58 -8 68 18
5 14 11 51 12 82 l3 56 -106 22 c-124 27 -182 54 -210 98 -20 31 -21 40 -14
487 7 502 -1 638 -41 778 -72 247 -226 408 -440 458 -100 23 -255 15 -353 -20
-143 -50 -335 -157 -462 -257 -20 -16 -44 -29 -52 -29 -8 0 -36 28 -60 63 -90
126 -216 218 -337 246 -198 46 -466 -43 -740 -245 -38 -28 -70 -44 -83 -42
-21 3 -22 7 -22 138 0 74 -2 141 -3 148 -3 17 -17 15 -92 -15z"/>
<path d="M9129 3540 c-462 -73 -795 -342 -899 -726 -31 -115 -39 -365 -15
-504 65 -389 281 -660 615 -768 358 -117 785 -31 1079 217 129 109 247 306
298 496 25 92 27 116 27 305 1 194 0 210 -26 303 -77 276 -242 478 -483 593
-131 62 -231 85 -400 89 -77 2 -165 0 -196 -5z m108 -205 c112 -21 210 -73
299 -158 195 -185 285 -460 271 -836 -9 -256 -62 -416 -173 -521 -30 -28 -84
-65 -121 -83 -59 -27 -81 -32 -169 -35 -117 -5 -195 11 -294 61 -82 40 -220
176 -273 267 -173 301 -204 789 -66 1063 38 74 135 173 204 207 103 50 192 60
322 35z"/>
<path d="M14120 3535 c-169 -38 -365 -123 -473 -205 -119 -90 -208 -228 -243
-375 -25 -107 -15 -313 20 -421 57 -176 179 -304 366 -383 59 -25 71 -36 63
-58 -6 -16 -104 -83 -235 -162 -48 -29 -95 -59 -103 -67 -23 -24 -18 -75 16
-142 37 -74 105 -138 197 -184 37 -19 68 -41 69 -49 1 -8 -44 -47 -103 -89
-368 -259 -442 -387 -363 -618 75 -219 274 -376 555 -438 104 -23 360 -23 490
0 452 79 834 381 934 738 24 84 29 239 10 309 -41 150 -153 274 -300 330 -70
27 -259 55 -490 74 -107 9 -247 20 -310 25 -177 15 -250 61 -250 158 0 80 67
125 198 136 195 16 359 72 512 176 221 151 320 343 320 620 0 55 -7 135 -16
176 -8 42 -13 78 -10 81 3 3 42 0 88 -7 74 -11 91 -11 143 5 108 31 165 121
165 259 0 89 -8 95 -64 52 -123 -93 -326 -97 -581 -11 -71 24 -157 51 -190 60
-86 23 -330 29 -415 10z m131 -179 c236 -50 369 -253 369 -561 0 -292 -128
-477 -340 -493 -233 -17 -410 129 -481 395 -29 106 -31 292 -5 378 26 87 59
145 108 192 95 91 205 119 349 89z m94 -1916 c363 -26 532 -94 604 -243 54
-112 49 -235 -12 -352 -84 -158 -249 -250 -489 -275 -189 -19 -373 10 -509 81
-111 58 -181 124 -226 217 -35 70 -38 83 -38 161 0 71 4 95 24 136 52 105 214
241 321 269 66 18 140 19 325 6z"/>
<path d="M16645 3539 c-149 -22 -320 -80 -448 -153 -349 -199 -523 -557 -477
-981 26 -246 94 -428 219 -584 162 -204 400 -316 698 -328 154 -7 244 5 382
49 200 64 329 138 451 262 130 132 204 265 258 465 23 87 25 114 26 291 0 181
-2 202 -27 294 -99 368 -367 617 -732 681 -94 16 -253 18 -350 4z m155 -214
c177 -47 333 -190 425 -388 108 -234 136 -604 64 -867 -44 -164 -129 -272
-259 -334 -57 -27 -78 -31 -170 -34 -125 -5 -201 12 -304 66 -136 71 -270 239
-335 418 -111 305 -106 696 12 917 59 113 187 212 307 237 57 12 188 4 260
-15z"/>
<path d="M24965 2277 c-113 -38 -191 -105 -239 -207 -28 -59 -31 -74 -31 -160
0 -88 3 -101 33 -162 40 -83 119 -158 200 -189 44 -18 77 -23 147 -24 82 0 96
3 156 32 80 40 150 111 187 191 23 49 27 70 26 147 0 115 -26 183 -95 260 -73
79 -156 118 -262 122 -50 2 -98 -2 -122 -10z m249 -50 c67 -31 134 -96 166
-162 36 -72 40 -198 10 -277 -29 -79 -96 -150 -178 -190 -59 -29 -76 -33 -148
-32 -71 0 -90 4 -147 32 -73 36 -132 95 -168 170 -33 66 -34 215 -3 283 41 89
127 162 227 195 62 21 174 11 241 -19z"/>
<path d="M24930 1911 l0 -241 25 0 25 0 0 105 0 105 43 0 43 0 46 -102 c44
-97 49 -103 79 -106 23 -3 30 0 26 10 -3 7 -25 56 -50 110 l-46 96 31 13 c21
9 37 26 50 56 25 56 17 113 -22 157 -28 31 -29 31 -139 34 l-111 4 0 -241z
m216 164 c8 -10 14 -38 14 -61 0 -61 -32 -84 -116 -84 l-64 0 0 86 0 86 76 -4
c60 -3 79 -7 90 -23z"/>
</g>
</svg>
