<?xml version="1.0" standalone="no"?>
<!DOCTYPE svg PUBLIC "-//W3C//DTD SVG 20010904//EN"
 "http://www.w3.org/TR/2001/REC-SVG-20010904/DTD/svg10.dtd">
<svg version="1.0" xmlns="http://www.w3.org/2000/svg"
 width="600.000000pt" height="600.000000pt" viewBox="0 0 600.000000 600.000000"
 preserveAspectRatio="xMidYMid meet">

<g transform="translate(0.000000,600.000000) scale(0.100000,-0.100000)"
fill="#000000" stroke="none">
<path d="M483 3435 c-77 -21 -130 -51 -188 -106 -48 -46 -94 -115 -109 -166
l-7 -22 48 21 c31 14 72 23 117 24 42 2 74 8 85 17 73 65 184 75 277 27 31
-17 64 -38 71 -48 29 -35 53 -98 53 -139 0 -32 4 -43 15 -43 29 0 75 -30 90
-60 19 -37 19 -93 -1 -131 -24 -48 -65 -59 -214 -59 l-130 0 0 -91 0 -91 163
4 c153 3 165 5 213 30 106 56 169 157 168 273 0 86 -24 144 -86 212 -24 26
-59 79 -77 116 -90 187 -294 284 -488 232z"/>
<path d="M1695 3307 c-86 -29 -153 -84 -193 -161 -23 -44 -27 -63 -27 -136 0
-73 4 -92 27 -136 32 -60 94 -119 157 -147 67 -31 189 -30 251 2 102 52 160
145 160 256 l0 55 -140 0 -140 0 0 -40 0 -40 94 0 c52 0 97 -4 101 -10 7 -12
-20 -78 -43 -103 -23 -26 -80 -54 -125 -62 -86 -16 -194 41 -237 126 -27 51
-27 146 -1 198 65 126 219 168 332 90 26 -18 26 -18 53 10 25 26 26 28 9 43
-64 56 -195 82 -278 55z"/>
<path d="M3430 3005 l0 -295 40 0 40 0 0 295 0 295 -40 0 -40 0 0 -295z"/>
<path d="M4286 3245 c-185 -66 -236 -330 -90 -465 63 -58 105 -74 194 -73 82
0 127 15 179 59 l32 27 -22 23 -21 23 -37 -29 c-64 -51 -160 -61 -232 -24 -32
16 -87 77 -101 113 -17 45 -12 144 11 189 41 80 113 117 211 110 44 -3 67 -11
95 -32 l37 -29 21 21 c18 18 19 23 6 38 -8 9 -36 28 -64 40 -58 28 -156 32
-219 9z"/>
<path d="M4670 2980 l0 -270 30 0 30 0 0 270 0 270 -30 0 -30 0 0 -270z"/>
<path d="M5932 3140 c3 -101 -2 -131 -15 -97 -8 21 -70 47 -111 47 -109 0
-184 -94 -174 -216 12 -142 167 -222 267 -138 36 30 41 30 41 -1 0 -21 5 -25
30 -25 l30 0 0 270 0 270 -36 0 -36 0 4 -110z m-55 -126 c55 -34 74 -126 40
-191 -46 -88 -175 -79 -214 14 -50 121 69 242 174 177z"/>
<path d="M2255 3089 c-50 -11 -107 -57 -129 -103 -19 -41 -21 -125 -2 -169 25
-61 111 -117 181 -117 106 0 195 91 195 200 0 130 -115 218 -245 189z m113
-85 c54 -37 67 -119 29 -175 -44 -65 -126 -69 -181 -8 -26 29 -28 37 -24 87 4
47 10 60 37 84 36 33 102 38 139 12z"/>
<path d="M2681 3085 c-83 -26 -131 -93 -131 -185 0 -65 18 -108 63 -147 76
-66 171 -68 256 -5 82 61 94 207 23 285 -46 51 -141 74 -211 52z m125 -81 c56
-37 70 -117 31 -175 -43 -64 -126 -69 -179 -9 -23 25 -28 40 -28 81 0 45 4 55
34 85 28 28 42 34 75 34 23 0 53 -7 67 -16z"/>
<path d="M3110 3085 c-79 -36 -123 -102 -123 -185 0 -65 18 -105 67 -148 63
-55 145 -64 201 -21 l25 20 0 -43 c0 -52 -21 -85 -65 -104 -42 -17 -96 -3
-124 32 -19 24 -23 25 -56 14 l-35 -12 17 -30 c52 -89 193 -113 278 -46 57 44
65 82 65 311 l0 207 -40 0 c-29 0 -40 -4 -40 -15 0 -13 -5 -12 -28 5 -38 28
-98 34 -142 15z m132 -85 c58 -45 63 -140 10 -193 -24 -24 -38 -29 -73 -29
-37 1 -49 6 -76 36 -28 31 -33 43 -33 87 0 45 4 55 34 85 27 27 42 34 74 34
24 0 49 -8 64 -20z"/>
<path d="M3687 3086 c-173 -64 -165 -327 11 -376 71 -19 130 -6 187 43 l38 33
-33 21 -34 21 -29 -24 c-37 -31 -103 -33 -141 -3 -14 11 -26 26 -26 32 0 7 58
35 128 63 142 58 147 64 96 131 -46 60 -128 85 -197 59z m98 -70 c19 -8 35
-21 35 -28 0 -7 -41 -30 -90 -50 -90 -37 -90 -37 -90 -14 0 31 36 75 74 92 38
16 31 17 71 0z"/>
<path d="M4902 3069 c-115 -57 -137 -227 -41 -313 62 -57 147 -68 221 -30 61
31 105 129 92 202 -24 133 -153 200 -272 141z m148 -54 c44 -23 63 -67 58
-132 -6 -71 -44 -113 -109 -120 -60 -6 -101 21 -124 81 -23 60 -14 109 30 153
27 27 41 33 74 33 23 0 55 -7 71 -15z"/>
<path d="M5242 2933 c3 -136 5 -151 26 -180 43 -60 140 -68 202 -17 l30 26 0
-26 c0 -22 4 -26 30 -26 l30 0 0 185 0 185 -30 0 -30 0 0 -115 c0 -124 -10
-160 -52 -189 -33 -24 -82 -20 -115 8 -28 24 -28 25 -31 160 l-4 136 -30 0
-29 0 3 -147z"/>
</g>
</svg>
