<?xml version="1.0" standalone="no"?>
<!DOCTYPE svg PUBLIC "-//W3C//DTD SVG 20010904//EN"
 "http://www.w3.org/TR/2001/REC-SVG-20010904/DTD/svg10.dtd">
<svg version="1.0" xmlns="http://www.w3.org/2000/svg"
 width="2674.000000pt" height="712.000000pt" viewBox="0 0 2674.000000 712.000000"
 preserveAspectRatio="xMidYMid meet">

<g transform="translate(0.000000,712.000000) scale(0.100000,-0.100000)"
fill="#000000" stroke="none">
<path d="M3518 7109 c-716 -69 -1380 -577 -1705 -1304 -186 -415 -286 -863
-300 -1345 -20 -706 164 -1416 548 -2112 l42 -76 -27 -68 c-15 -37 -32 -104
-38 -148 -36 -267 149 -524 419 -581 86 -18 130 -18 216 0 187 39 331 166 395
349 36 101 36 241 0 343 -32 90 -103 191 -171 243 -110 82 -260 129 -372 115
l-50 -6 -67 123 c-227 417 -361 840 -418 1323 -30 245 -22 651 16 915 65 450
264 914 532 1243 212 259 567 447 972 516 425 72 762 -37 1070 -348 127 -128
202 -227 296 -392 148 -260 269 -611 305 -882 l12 -97 56 -15 c31 -9 136 -41
235 -71 98 -30 180 -53 182 -51 6 6 -24 252 -47 377 -176 993 -768 1721 -1551
1910 -194 47 -354 58 -550 39z"/>
<path d="M19340 4900 c0 -412 -3 -750 -8 -750 -4 0 -38 22 -74 49 -91 66 -218
126 -319 151 -108 27 -323 37 -442 21 -411 -55 -748 -313 -941 -722 -153 -322
-209 -738 -156 -1159 48 -383 186 -705 390 -911 209 -212 462 -302 779 -279
288 22 520 128 749 345 l71 66 40 -128 c45 -143 68 -181 126 -215 39 -22 47
-23 358 -26 l317 -3 0 2155 0 2156 -445 0 -445 0 0 -750z m-305 -1196 c96 -23
181 -68 245 -130 l60 -57 0 -624 0 -624 -40 -48 c-140 -165 -336 -251 -551
-239 -239 14 -376 186 -430 543 -21 134 -17 483 5 610 44 244 133 417 261 505
117 80 284 104 450 64z"/>
<path d="M11180 3436 l0 -2096 485 0 485 0 0 775 0 775 158 0 c199 0 242 -11
309 -79 37 -37 133 -197 410 -682 199 -349 375 -650 392 -670 36 -43 128 -93
199 -108 51 -11 982 -17 982 -6 0 14 -910 1490 -948 1538 -49 61 -155 151
-222 188 l-39 22 109 53 c163 78 243 135 373 262 147 143 260 345 313 556 32
123 44 393 25 526 -75 509 -399 829 -984 970 -257 62 -271 63 -1199 67 l-848
4 0 -2095z m1657 1336 c223 -58 365 -190 419 -389 23 -86 21 -268 -5 -366 -46
-174 -143 -294 -303 -371 -147 -70 -200 -79 -520 -84 l-278 -4 0 622 0 622
303 -5 c267 -3 312 -6 384 -25z"/>
<path d="M3100 4896 c-195 -54 -339 -203 -385 -397 -61 -259 88 -530 340 -620
82 -30 220 -36 302 -15 139 35 267 129 333 244 35 60 35 61 90 68 77 10 400
-2 550 -20 582 -71 1107 -267 1601 -597 235 -157 472 -370 629 -563 230 -285
411 -653 472 -959 25 -129 30 -357 9 -467 -51 -271 -181 -510 -396 -726 -214
-216 -436 -331 -745 -386 -149 -26 -424 -28 -585 -4 -158 24 -382 81 -516 132
-64 24 -119 44 -123 44 -4 0 -58 -42 -119 -93 -62 -50 -156 -125 -210 -166
-54 -41 -94 -77 -90 -81 15 -13 205 -91 322 -131 296 -102 578 -151 881 -152
217 -1 317 9 515 50 591 123 1130 511 1364 980 184 369 208 869 65 1342 -94
309 -242 586 -455 851 -104 130 -354 387 -474 488 -598 503 -1310 798 -2135
887 -80 9 -256 18 -391 22 l-246 6 -27 43 c-61 97 -190 187 -313 219 -68 18
-200 18 -263 1z"/>
<path d="M15657 4360 c-343 -43 -626 -178 -853 -404 -340 -341 -475 -806 -398
-1375 81 -595 446 -1046 980 -1210 208 -63 405 -85 652 -70 474 28 854 188
1105 466 l37 40 -145 180 c-169 210 -180 217 -298 211 -71 -3 -85 -8 -239 -85
-189 -95 -278 -127 -403 -144 -323 -42 -597 88 -719 342 -47 96 -81 211 -93
306 l-6 52 899 3 c878 3 900 3 933 23 50 29 71 78 83 196 20 189 -15 462 -82
654 -152 428 -476 702 -939 796 -110 22 -403 33 -514 19z m372 -625 c29 -7 78
-26 107 -41 62 -31 161 -130 192 -191 30 -58 60 -176 64 -248 l3 -60 -553 -3
-554 -2 7 42 c43 251 208 453 411 502 78 19 254 20 323 1z"/>
<path d="M20690 3323 c0 -664 4 -1028 11 -1088 32 -266 127 -486 278 -647 204
-217 486 -315 831 -287 275 22 504 124 712 317 33 31 49 40 52 31 3 -8 15 -48
27 -89 40 -137 78 -185 164 -209 25 -7 152 -11 333 -11 l292 0 0 1490 0 1490
-445 0 -445 0 0 -1062 -1 -1063 -54 -43 c-71 -57 -193 -126 -269 -152 -39 -14
-98 -24 -162 -27 -87 -5 -112 -3 -174 16 -64 20 -81 31 -135 84 -67 68 -97
131 -115 242 -6 36 -10 449 -10 1033 l0 972 -445 0 -445 0 0 -997z"/>
<path d="M23606 4308 c4 -7 219 -330 477 -716 258 -388 466 -710 463 -718 -3
-7 -226 -353 -496 -769 -269 -415 -490 -757 -490 -760 0 -11 825 -5 865 6 79
22 131 94 382 520 128 217 246 425 264 462 l32 69 17 -29 c10 -15 134 -227
275 -471 142 -244 269 -457 282 -473 14 -16 46 -42 72 -57 l46 -27 469 -3
c379 -2 467 0 463 10 -3 7 -224 359 -492 783 -268 423 -489 774 -492 781 -2 6
210 323 472 705 l476 694 -423 3 c-233 1 -437 0 -455 -3 -67 -12 -102 -62
-344 -485 -127 -222 -239 -424 -248 -449 l-18 -44 -115 189 c-63 104 -188 312
-279 463 -133 223 -171 279 -203 300 l-40 26 -484 3 c-390 2 -482 0 -476 -10z"/>
<path d="M1043 3731 c-585 -453 -923 -985 -1017 -1601 -70 -455 30 -968 256
-1321 246 -383 717 -667 1260 -758 438 -74 910 -25 1443 149 957 314 1688 932
2169 1832 48 91 61 108 81 108 13 0 54 11 91 24 210 77 344 269 344 495 -1
162 -43 266 -154 377 -111 110 -215 153 -377 154 -246 0 -452 -161 -514 -405
-38 -151 7 -346 106 -460 l32 -36 -19 -42 c-31 -68 -151 -265 -224 -367 -317
-442 -784 -822 -1371 -1114 -373 -186 -729 -280 -1115 -293 -713 -25 -1204
227 -1469 757 -272 544 -170 1142 292 1697 82 99 223 241 322 324 l54 45 -41
150 c-23 82 -51 191 -63 242 -11 50 -22 92 -22 91 -1 0 -30 -22 -64 -48z"/>
</g>
</svg>
